# xmcd CD database file
#
# Track frame offsets:
#	150
#	22052
#	37570
#	57192
#	79900
#	105260
#	121685
#	140427
#	168210
#	193372
#
# Disc length: 2853 seconds
#
# Revision: 0
# Processed by: cddbd v1.5.1PL2 Copyright (c) Steve Scherf et al.
# Submitted via: CDex 1.51
#
DISCID=760b230a
DTITLE=THE KIDS - KNIFE
DYEAR=1990
DGENRE=Rock
TTITLE0=KNIFE
TTITLE1=MACHINEGUN JOHNNY
TTITLE2=裸足のレイディ -SHE'S GONE-
TTITLE3=CIVILIAN GOOD TIME
TTITLE4=GOODBYE TECHNOLOGY
TTITLE5=ALL THE JESUS BELIEVER
TTITLE6=RUSH EMOTION
TTITLE7=時の調律
TTITLE8=1945年の彼に…
TTITLE9=BRITISH SWEATER
EXTD=YEAR: 1990
EXTT0=
EXTT1=
EXTT2=
EXTT3=
EXTT4=
EXTT5=
EXTT6=
EXTT7=
EXTT8=
EXTT9=
PLAYORDER=
